<svg xmlns="http://www.w3.org/2000/svg" viewBox="0 0 300 300">
  <defs></defs>
  <rect fill="transparent" x="0" y="0" width="300px" height="300px" class="logo-background-square"></rect>
  <defs></defs>
  <g id="1cce2bf4-d8fc-4ea6-95c3-3e5c18b89e46" fill="#000000" transform="matrix(4.924458782510644,0,0,4.924458782510644,120.34234151953775,100.0413657453561)">
    <path d="M4.59 15.22C6.27 15.22 7.99 14.50 7.99 13.30C7.99 12.64 7.27 12.38 6.61 12.46C6.40 13.90 5.67 14.60 4.68 14.60C3.23 14.60 2.55 13.12 2.55 10.15C2.55 7.18 3.25 5.70 4.73 5.70C5.68 5.70 6.27 6.31 6.41 7.62C7.28 7.64 7.74 7.15 7.74 6.68C7.74 5.68 6.22 5.08 4.70 5.08C2.20 5.08 0.71 6.90 0.71 10.15C0.71 13.40 2.16 15.22 4.59 15.22ZM16.67 14.01L14.11 5.63C13.99 5.19 13.59 5.07 13.19 5.07C12.73 5.07 12.28 5.15 11.80 5.31L8.99 13.64C8.89 13.97 8.82 14.28 8.82 14.50C8.82 14.99 9.11 15.20 9.74 15.20C10.16 15.20 10.42 15.12 10.65 15.02C10.57 14.94 10.53 14.81 10.53 14.62C10.53 14.43 10.57 14.24 10.61 14.04L11.13 12.10L14.42 12.10L15.11 14.56C15.20 14.98 15.61 15.20 16.13 15.20C16.66 15.20 16.94 15.01 17.09 14.83C16.88 14.60 16.74 14.24 16.67 14.01ZM11.38 11.19L12.75 6.06L14.17 11.19ZM20.52 5.08C19.38 5.08 18.63 5.24 18.14 5.47C18.35 6.02 18.40 6.79 18.40 7.18L18.40 14.35C18.40 14.88 18.80 15.22 19.35 15.22C19.81 15.22 20.16 14.98 20.30 14.84C20.09 14.34 20.06 13.62 20.06 13.23L20.06 11.21L20.40 11.21C23.18 11.21 24.71 10.07 24.71 7.97C24.71 5.94 23.25 5.08 20.52 5.08ZM20.36 10.61L20.06 10.61L20.06 5.73C20.17 5.70 20.34 5.70 20.54 5.70C22.27 5.70 22.89 6.62 22.89 8.08C22.89 9.62 22.22 10.61 20.36 10.61ZM27.41 15.22C27.87 15.22 28.22 14.98 28.36 14.84C28.15 14.29 28.13 13.68 28.13 13.13L28.13 5.96C28.13 5.43 27.71 5.11 27.16 5.11C26.70 5.11 26.36 5.33 26.21 5.47C26.42 6.02 26.46 6.64 26.46 7.18L26.46 14.35C26.46 14.88 26.87 15.22 27.41 15.22Z"></path>
  </g>
  <defs>
    <linearGradient gradientTransform="rotate(25)" id="9d332190-fe74-458f-8401-02ed8889cb7a" x1="0%" y1="0%" x2="100%" y2="0%">
      <stop offset="0%" stop-color="#20484F" stop-opacity="1"></stop>
      <stop offset="100%" stop-color="#4E9BAB" stop-opacity="1"></stop>
    </linearGradient>
  </defs>
  <g id="9b0978b1-ca78-4a07-942e-3178ddd83857" stroke="none" fill="url(#9d332190-fe74-458f-8401-02ed8889cb7a)" transform="matrix(0.8339808065695697,0,0,0.8339808065695697,34.13533079359222,108.34265489418883)">
    <path d="M49.5 36c-7.9 0-14.4 6.5-14.4 14.4s6.5 14.4 14.4 14.4 14.4-6.5 14.4-14.4S57.5 36 49.5 36zm0 22.8c-4.6 0-8.4-3.8-8.4-8.4 0-4.6 3.8-8.4 8.4-8.4s8.4 3.8 8.4 8.4c0 4.6-3.7 8.4-8.4 8.4zm41.7 9l-7.9-8s-.1 0-.1-.1c.8-3 1.3-6.1 1.3-9.3 0-3.6-.5-7-1.5-10.2l7.1-7.3c.8-.5 1-1.6.5-2.4l-5.9-9.3c-.5-.8-1.6-1-2.4-.5l-9.9 3.4c-3.8-3.3-8.2-5.8-13.2-7.2L56.8 6.7C56.8 5.8 56 5 55 5H44c-1 0-1.7.8-1.7 1.7l-2.4 10.2c-5.1 1.5-9.7 4.1-13.6 7.5l-.1-.1-10.7-3.6c-.8-.5-1.9-.2-2.4.6l-5.8 9.3c-.5.8-.3 1.9.6 2.4l7.9 8s.1 0 .1.1c-.8 3-1.3 6.1-1.3 9.3 0 3.3.5 6.5 1.4 9.6l-6.9 7.1c-.8.5-1 1.6-.5 2.4l5.9 9.3c.5.8 1.6 1 2.4.5l9.2-3.2c4 3.6 8.7 6.3 14 7.8l2.2 9.3c0 1 .8 1.7 1.7 1.7h11c1 0 1.7-.8 1.7-1.7l2.2-9.4c5.2-1.5 9.9-4.1 13.8-7.6l.1.1 10.7 3.6c.8.5 1.9.3 2.4-.6l5.8-9.3c.5-.6.3-1.7-.5-2.2zM49.5 79.2c-15.9 0-28.8-12.9-28.8-28.8s12.9-28.8 28.8-28.8 28.8 12.9 28.8 28.8-12.9 28.8-28.8 28.8z"></path>
  </g>
</svg>